<svg xmlns="http://www.w3.org/2000/svg" viewBox="0 0 1000 1000"><defs><style>.cls-1{fill:#1d1d1b;}.cls-2{fill:#e30613;}.cls-3{fill:#252424;}.cls-4{fill:#e61818;}</style></defs><g id="Capa_1" data-name="Capa 1"><path class="cls-1" d="M250.68,523.61a.67.67,0,0,0-.68.68v19.36a3.39,3.39,0,0,0,3.39,3.39H570.22V523.61ZM494,541H460.09a5.65,5.65,0,1,1,0-11.29H494A5.65,5.65,0,0,1,494,541Z"/><path class="cls-1" d="M284.15,487.47a.67.67,0,0,0-.46.18l-32.43,30.27c-.69.64-.49,1.17.46,1.17h318.5V487.47Z"/><path class="cls-1" d="M299.23,462.62V224.18H654.84V324.42h15.34V220.54a7.06,7.06,0,0,0-7.06-7.06H291a7.06,7.06,0,0,0-7.06,7.06V475.89A7.06,7.06,0,0,0,291,483H570.22V462.62Z"/><polygon class="cls-2" points="491.31 453.37 466.61 255.31 442.62 363.99 299.23 363.99 299.23 360.99 440.21 360.99 467.43 237.66 491.08 427.26 506.63 281.34 519.29 370.13 520.77 360.99 570.22 360.99 570.22 363.99 523.32 363.99 519.11 390.09 507.06 305.61 491.31 453.37"/><path class="cls-1" d="M744.47,624.56H575.75a5.53,5.53,0,0,1-5.53-5.54V330a5.53,5.53,0,0,1,5.53-5.54H744.47A5.54,5.54,0,0,1,750,330V619A5.54,5.54,0,0,1,744.47,624.56ZM741.6,334.12h-163v266h163ZM660.11,605.05a7.41,7.41,0,1,0,7.41,7.41A7.41,7.41,0,0,0,660.11,605.05Z"/><path class="cls-2" d="M712,485.49v-22H701.05a42,42,0,0,0-4.21-10.18l7.72-7.71L689,430l-7.72,7.72a42,42,0,0,0-10.17-4.21V422.63h-22v10.92a42,42,0,0,0-10.18,4.21L631.22,430,615.66,445.6l7.72,7.71a42,42,0,0,0-4.21,10.18H608.25v22h10.92a42,42,0,0,0,4.21,10.17l-7.72,7.72,15.56,15.56,7.71-7.72a42,42,0,0,0,10.18,4.21v10.92h22V515.43a42,42,0,0,0,10.17-4.21l7.72,7.72,15.56-15.56-7.72-7.72a42,42,0,0,0,4.21-10.17Zm-28.11-2.81a23.1,23.1,0,0,1-1.17,2.81,25.19,25.19,0,0,1-11.58,11.58,23.1,23.1,0,0,1-2.81,1.17,24.85,24.85,0,0,1-16.39,0,23.64,23.64,0,0,1-2.8-1.17,25.21,25.21,0,0,1-11.59-11.58,25.19,25.19,0,0,1,0-22,25.21,25.21,0,0,1,11.59-11.58,23.64,23.64,0,0,1,2.8-1.17,24.85,24.85,0,0,1,16.39,0,23.1,23.1,0,0,1,2.81,1.17,25.19,25.19,0,0,1,11.58,11.58,23.1,23.1,0,0,1,1.17,2.81,24.82,24.82,0,0,1,0,16.38Z"/></g><g id="Capa_2" data-name="Capa 2"><path id="Marca" class="cls-3" d="M260.3,657.06v40.38h24.82v9.27H250V657.06Zm58.46-.37,23.12,50H329.8L326,697.44H306.39l-3.78,9.27H290.53l23.12-50Zm-2.52,16.82L310,688.7h12.45Zm52.54-17.63a25.72,25.72,0,0,1,10.07,1.81,16,16,0,0,1,6.71,5A11.89,11.89,0,0,1,388,670a11.43,11.43,0,0,1-2,6.59,13.51,13.51,0,0,1-4.92,4.45,14.5,14.5,0,0,1,4.29,2,11,11,0,0,1,3.41,3.63,11.17,11.17,0,0,1,1.34,5.75A12.58,12.58,0,0,1,387.6,700a17.53,17.53,0,0,1-7,5.52A25.06,25.06,0,0,1,370,707.6c-2.18,0-4.52-.09-7-.26s-4.92-.42-7.19-.75-4.2-.65-5.78-1V657.73a81.94,81.94,0,0,1,9-1.37Q363.81,655.88,368.78,655.88Zm0,9.41a42.85,42.85,0,0,0-8.45.74v12h9.26a9,9,0,0,0,6-1.85,6,6,0,0,0,2.18-4.74,5,5,0,0,0-2.63-4.56A12,12,0,0,0,368.78,665.29Zm-8.45,32.15a27.82,27.82,0,0,0,4.78.71c1.8.12,3.25.18,4.33.18a13.31,13.31,0,0,0,7.08-1.7,5.37,5.37,0,0,0,2.78-4.82,4.94,4.94,0,0,0-2.89-4.63,14.85,14.85,0,0,0-7-1.52h-9.11Zm60.54-14.3V692H398.56v-8.89ZM465,677.22v8.37H443v12h24.82v9.12H432.72V657.06h35.12V666H443v11.27Zm58.83-20.16-18.07,24.75,18.07,24.9h-13l-12-17.12-11.7,17.12h-12.6l18-24.68-18-25h13l12,17.64,11.34-17.64Zm28.31,0a20.28,20.28,0,0,1,6.82,1.19,19.31,19.31,0,0,1,6,3.48,17.07,17.07,0,0,1,4.29,5.52,16.47,16.47,0,0,1,1.6,7.37,15.92,15.92,0,0,1-2.56,8.93,17.93,17.93,0,0,1-6.78,6.11,19.36,19.36,0,0,1-9.19,2.23,25,25,0,0,1-6-.67,21.34,21.34,0,0,1-4.45-1.56v17.05h-10.3V657.06Zm-10.23,9.63v14.68a23.12,23.12,0,0,0,4,1.14,23.63,23.63,0,0,0,4.78.49,9.86,9.86,0,0,0,7.07-2.49,7.8,7.8,0,0,0,2.63-5.89,6.68,6.68,0,0,0-3-5.93,12.19,12.19,0,0,0-7-2Zm59.5-9.63a24.48,24.48,0,0,1,6.82,1,18.92,18.92,0,0,1,6,3,14.82,14.82,0,0,1,4.3,5,15.06,15.06,0,0,1,1.59,7.15,12.85,12.85,0,0,1-2.19,7.52,14.69,14.69,0,0,1-5.74,4.89,20.77,20.77,0,0,1-7.7,2l17.85,19.12H608.77L591.51,686.4v20.31h-10.3V657.06Zm-9.85,9.63v12.53a24.3,24.3,0,0,0,4,.92,29.56,29.56,0,0,0,4.41.34,12.28,12.28,0,0,0,7.08-1.82,5.9,5.9,0,0,0,2.63-5.15,5.55,5.55,0,0,0-2.78-5.22,13.44,13.44,0,0,0-6.78-1.6Zm71.43,10.53v8.37H641v12h24.83v9.12H630.71V657.06h35.12V666H641v11.27Zm29.78-21.12a24.74,24.74,0,0,1,7.86,1.18,27.1,27.1,0,0,1,6,2.75v10.15a55.85,55.85,0,0,0-5.71-3,16.16,16.16,0,0,0-6.89-1.41,12.83,12.83,0,0,0-3.81.59,7.71,7.71,0,0,0-3.11,1.78,4.31,4.31,0,0,0,.92,6.74,40.83,40.83,0,0,0,5.26,2.52l6.08,2.52a18.69,18.69,0,0,1,7.63,5.41,11.64,11.64,0,0,1,2.45,7.26,12.61,12.61,0,0,1-2.56,7.82,17.39,17.39,0,0,1-6.82,5.3,22.74,22.74,0,0,1-9.45,1.93,23.89,23.89,0,0,1-8.37-1.49,28.51,28.51,0,0,1-7-3.63V692.33a34.71,34.71,0,0,0,7.18,4A21.58,21.58,0,0,0,690.8,698a10.85,10.85,0,0,0,5.33-1.22,4,4,0,0,0,2.23-3.67,3.69,3.69,0,0,0-1.82-3.15,19.44,19.44,0,0,0-4-2l-7.64-3q-5.78-2.22-7.81-5.81a15.89,15.89,0,0,1-2-8,13,13,0,0,1,2.48-7.89,16.86,16.86,0,0,1,6.48-5.26A20.06,20.06,0,0,1,692.72,656.1Zm40.61,0a24.73,24.73,0,0,1,7.85,1.18,27.1,27.1,0,0,1,6,2.75v10.15a55.67,55.67,0,0,0-5.7-3,16.19,16.19,0,0,0-6.89-1.41,12.84,12.84,0,0,0-3.82.59,7.78,7.78,0,0,0-3.11,1.78,4.32,4.32,0,0,0,.93,6.74,40.2,40.2,0,0,0,5.26,2.52l6.07,2.52a18.69,18.69,0,0,1,7.63,5.41,11.64,11.64,0,0,1,2.45,7.26,12.55,12.55,0,0,1-2.56,7.82,17.29,17.29,0,0,1-6.81,5.3,22.74,22.74,0,0,1-9.45,1.93,23.84,23.84,0,0,1-8.37-1.49,28.77,28.77,0,0,1-7-3.63V692.33a34.79,34.79,0,0,0,7.19,4A21.57,21.57,0,0,0,731.4,698a10.89,10.89,0,0,0,5.34-1.22,4,4,0,0,0,2.22-3.67,3.69,3.69,0,0,0-1.82-3.15,19.44,19.44,0,0,0-4-2l-7.63-3q-5.77-2.22-7.82-5.81a15.89,15.89,0,0,1-2-8,12.93,12.93,0,0,1,2.49-7.89,16.71,16.71,0,0,1,6.48-5.26A20.06,20.06,0,0,1,733.33,656.1Z"/><path id="Eslogan" class="cls-4" d="M300.53,762.2h-9.34v-2.43h21.48v2.43h-9.34v24.13h-2.8Zm35.39,4.17v20h-2.58v-3.64a7.4,7.4,0,0,1-2.92,2.82,8.78,8.78,0,0,1-4.25,1,8.5,8.5,0,0,1-6.16-2.18q-2.26-2.19-2.26-6.4V766.37h2.69v11.31a6.66,6.66,0,0,0,1.56,4.78,5.84,5.84,0,0,0,4.44,1.63,6.53,6.53,0,0,0,5-1.92,7.42,7.42,0,0,0,1.82-5.33V766.37Zm34.26,1.8a7.58,7.58,0,0,1,2.09,5.79v12.37h-2.58v-3.11a6.2,6.2,0,0,1-2.68,2.42,9.22,9.22,0,0,1-4.19.88,8.14,8.14,0,0,1-5.31-1.6,5.47,5.47,0,0,1-.13-8.3c1.22-1,3.18-1.56,5.86-1.56h6.33v-1.21a5.13,5.13,0,0,0-1.44-3.93,5.93,5.93,0,0,0-4.21-1.35,10.6,10.6,0,0,0-3.64.63,9.28,9.28,0,0,0-3,1.72l-1.21-2a10.74,10.74,0,0,1,3.64-2,14.09,14.09,0,0,1,4.47-.7A8.46,8.46,0,0,1,370.18,768.17Zm-3,15.18a6.22,6.22,0,0,0,2.43-3v-3.26h-6.26q-5.12,0-5.12,3.57a3.26,3.26,0,0,0,1.33,2.75,6,6,0,0,0,3.72,1A7.12,7.12,0,0,0,367.14,783.35Zm14.34-25.17h2.7v28.15h-2.7Zm12.11,8.19h2.69v20h-2.69Zm0-4.93a1.86,1.86,0,0,1-.57-1.37,1.81,1.81,0,0,1,.57-1.32,1.91,1.91,0,0,1,1.4-.57,1.94,1.94,0,0,1,1.41.55,1.73,1.73,0,0,1,.56,1.31,2,2,0,0,1-3.37,1.4Zm25.11,6.73a7.58,7.58,0,0,1,2.09,5.79v12.37h-2.58v-3.11a6.2,6.2,0,0,1-2.68,2.42,9.22,9.22,0,0,1-4.19.88,8.18,8.18,0,0,1-5.31-1.6,5.15,5.15,0,0,1-2-4.21,5.07,5.07,0,0,1,1.84-4.09q1.84-1.56,5.86-1.56h6.34v-1.21a5.1,5.1,0,0,0-1.45-3.93,5.93,5.93,0,0,0-4.21-1.35,10.64,10.64,0,0,0-3.64.63,9.38,9.38,0,0,0-3,1.72l-1.21-2a10.83,10.83,0,0,1,3.64-2,14.15,14.15,0,0,1,4.48-.7A8.45,8.45,0,0,1,418.66,768.17Zm-3,15.18a6.28,6.28,0,0,0,2.43-3v-3.26H411.8q-5.13,0-5.13,3.57a3.28,3.28,0,0,0,1.33,2.75,6.07,6.07,0,0,0,3.72,1A7.15,7.15,0,0,0,415.63,783.35Zm32.62-25.17v28.15h-2.58v-4a8.13,8.13,0,0,1-3.2,3.07,9.41,9.41,0,0,1-4.5,1.07,10.13,10.13,0,0,1-5.08-1.29,9.18,9.18,0,0,1-3.57-3.61,11.41,11.41,0,0,1,0-10.54,9.07,9.07,0,0,1,3.57-3.59,10.22,10.22,0,0,1,5.08-1.27,9.42,9.42,0,0,1,4.38,1,8.23,8.23,0,0,1,3.21,2.94v-12Zm-6.27,25a6.88,6.88,0,0,0,2.65-2.75,9,9,0,0,0,0-8.12,6.88,6.88,0,0,0-2.65-2.75,7.91,7.91,0,0,0-7.59,0,6.91,6.91,0,0,0-2.66,2.75,9,9,0,0,0,0,8.12,6.91,6.91,0,0,0,2.66,2.75,7.91,7.91,0,0,0,7.59,0Zm18.64,2.05a9.52,9.52,0,0,1-3.64-3.62,11,11,0,0,1,0-10.48,9.4,9.4,0,0,1,3.64-3.6,11.13,11.13,0,0,1,10.4,0,9.28,9.28,0,0,1,3.62,3.6,11.13,11.13,0,0,1,0,10.48,9.4,9.4,0,0,1-3.62,3.62,11,11,0,0,1-10.4,0Zm9-2.05a6.73,6.73,0,0,0,2.64-2.75,9.15,9.15,0,0,0,0-8.12,6.73,6.73,0,0,0-2.64-2.75,8,8,0,0,0-7.62,0,6.91,6.91,0,0,0-2.66,2.75,9,9,0,0,0,0,8.12,6.91,6.91,0,0,0,2.66,2.75,8,8,0,0,0,7.62,0Zm42.93-6h-16.7a7.17,7.17,0,0,0,2.39,5,8,8,0,0,0,5.47,1.92,8.44,8.44,0,0,0,3.41-.67,7.42,7.42,0,0,0,2.7-2l1.51,1.74a8.36,8.36,0,0,1-3.32,2.43,11.9,11.9,0,0,1-9.82-.47,9.4,9.4,0,0,1-3.7-3.62,10.31,10.31,0,0,1-1.33-5.24,10.69,10.69,0,0,1,1.27-5.24,9.23,9.23,0,0,1,3.49-3.6,9.74,9.74,0,0,1,5-1.29,9.64,9.64,0,0,1,5,1.29,9.1,9.1,0,0,1,3.45,3.59,10.73,10.73,0,0,1,1.26,5.25Zm-14.48-6.81a7.27,7.27,0,0,0-2.22,4.8H510a7.27,7.27,0,0,0-2.22-4.8,7.34,7.34,0,0,0-9.72,0Zm38.06-2c1.47,1.46,2.21,3.57,2.21,6.36v11.57h-2.69V775a6.65,6.65,0,0,0-1.55-4.74,5.84,5.84,0,0,0-4.44-1.63,6.87,6.87,0,0,0-5.11,1.91,7.27,7.27,0,0,0-1.87,5.3v10.47H520v-20h2.58v3.68a7.51,7.51,0,0,1,3.06-2.82,9.76,9.76,0,0,1,4.53-1A8.19,8.19,0,0,1,536.14,768.4Zm40.64,8.78H560.09a7.13,7.13,0,0,0,2.39,5,7.94,7.94,0,0,0,5.47,1.92,8.5,8.5,0,0,0,3.41-.67,7.39,7.39,0,0,0,2.69-2l1.52,1.74a8.36,8.36,0,0,1-3.32,2.43,11.9,11.9,0,0,1-9.82-.47,9.34,9.34,0,0,1-3.7-3.62,10.31,10.31,0,0,1-1.33-5.24,10.69,10.69,0,0,1,1.27-5.24,9.23,9.23,0,0,1,3.49-3.6,9.74,9.74,0,0,1,5-1.29,9.64,9.64,0,0,1,5,1.29,9.1,9.1,0,0,1,3.45,3.59,10.72,10.72,0,0,1,1.25,5.25Zm-14.47-6.81a7.27,7.27,0,0,0-2.22,4.8h14.15a7.18,7.18,0,0,0-2.22-4.8,7.33,7.33,0,0,0-9.71,0Zm21.91-12.19h2.69v28.15h-2.69Zm34.45,26.93a5.05,5.05,0,0,1-1.88,1,7.57,7.57,0,0,1-2.33.36,5.29,5.29,0,0,1-5.85-5.81V768.65h-3.56v-2.28h3.56V762h2.7v4.36h6.07v2.28h-6.07v11.91a3.74,3.74,0,0,0,.89,2.71,3.38,3.38,0,0,0,2.56.93,5.12,5.12,0,0,0,1.61-.26,4,4,0,0,0,1.35-.76Zm19.76-16.94a7.58,7.58,0,0,1,2.09,5.79v12.37h-2.58v-3.11a6.2,6.2,0,0,1-2.68,2.42,9.22,9.22,0,0,1-4.19.88,8.18,8.18,0,0,1-5.31-1.6,5.15,5.15,0,0,1-2-4.21,5.07,5.07,0,0,1,1.84-4.09q1.85-1.56,5.86-1.56h6.34v-1.21a5.1,5.1,0,0,0-1.45-3.93,5.93,5.93,0,0,0-4.21-1.35,10.64,10.64,0,0,0-3.64.63,9.38,9.38,0,0,0-3,1.72l-1.21-2a10.83,10.83,0,0,1,3.64-2,14.15,14.15,0,0,1,4.48-.7A8.45,8.45,0,0,1,638.43,768.17Zm-3,15.18a6.28,6.28,0,0,0,2.43-3v-3.26h-6.26q-5.13,0-5.13,3.57a3.28,3.28,0,0,0,1.33,2.75,6.07,6.07,0,0,0,3.72,1A7.15,7.15,0,0,0,635.4,783.35Zm14.34-25.17h2.69v28.15h-2.69Zm12.1,0h2.69v28.15h-2.69Zm29.48,19h-16.7a7.17,7.17,0,0,0,2.39,5,8,8,0,0,0,5.47,1.92,8.44,8.44,0,0,0,3.41-.67,7.42,7.42,0,0,0,2.7-2l1.51,1.74a8.36,8.36,0,0,1-3.32,2.43,11.9,11.9,0,0,1-9.82-.47,9.4,9.4,0,0,1-3.7-3.62,10.31,10.31,0,0,1-1.33-5.24,10.69,10.69,0,0,1,1.27-5.24,9.23,9.23,0,0,1,3.49-3.6,9.74,9.74,0,0,1,5-1.29,9.64,9.64,0,0,1,5,1.29,9.1,9.1,0,0,1,3.45,3.59,10.73,10.73,0,0,1,1.26,5.25Zm-14.48-6.81a7.27,7.27,0,0,0-2.22,4.8h14.16a7.27,7.27,0,0,0-2.22-4.8,7.34,7.34,0,0,0-9.72,0Zm27.32-3.12a9.52,9.52,0,0,1,4.65-1v2.62l-.65,0a6.37,6.37,0,0,0-4.93,1.94,7.68,7.68,0,0,0-1.78,5.42v10.17h-2.7v-20h2.58v3.91A6.51,6.51,0,0,1,704.16,767.25Z"/></g></svg>