<svg xmlns="http://www.w3.org/2000/svg" viewBox="0 0 1000 1000">
    <defs>
        <style>.cls-1{fill:#1d1d1b;}.cls-2{fill:#e30613;}</style>
    </defs>
    <g id="Capa_3" data-name="Capa 3">
        <path class="cls-1"
            d="M200.81,625.51a.81.81,0,0,0-.81.81v23.24a4.07,4.07,0,0,0,4.07,4.07H584.26V625.51Zm292,20.83H452.11a6.78,6.78,0,1,1,0-13.55h40.66a6.78,6.78,0,1,1,0,13.55Z" />
        <path class="cls-1"
            d="M241,582.13a.82.82,0,0,0-.55.22l-38.92,36.33c-.83.77-.58,1.41.55,1.41h382.2v-38Z" />
        <path class="cls-1"
            d="M259.07,552.32V266.2H685.81V386.48h18.41V261.83a8.48,8.48,0,0,0-8.48-8.47H249.14a8.48,8.48,0,0,0-8.48,8.47V568.24a8.48,8.48,0,0,0,8.48,8.47H584.26V552.32Z" />
        <polygon class="cls-2"
            points="489.58 541.22 459.93 303.55 431.15 433.96 259.07 433.96 259.07 430.36 428.25 430.36 460.92 282.37 489.3 509.88 507.95 334.78 523.15 441.33 524.92 430.36 584.26 430.36 584.26 433.96 527.98 433.96 522.93 465.28 508.47 363.91 489.58 541.22" />
        <path class="cls-1"
            d="M794.47,746.64H589.79a5.53,5.53,0,0,1-5.53-5.53V392a5.54,5.54,0,0,1,5.53-5.54H794.47A5.54,5.54,0,0,1,800,392V741.11A5.53,5.53,0,0,1,794.47,746.64Zm-4.55-348.52H594.34V717.39H789.92ZM692.13,723.23a8.89,8.89,0,1,0,8.89,8.89A8.89,8.89,0,0,0,692.13,723.23Z" />
        <path class="cls-2"
            d="M754.36,579.76v-26.4h-13.1a50.63,50.63,0,0,0-5-12.21l9.26-9.26L726.8,513.22l-9.26,9.26a50.44,50.44,0,0,0-12.21-5V504.33h-26.4v13.11a50.44,50.44,0,0,0-12.21,5l-9.26-9.26-18.67,18.67,9.26,9.26a50.63,50.63,0,0,0-5,12.21H629.9v26.4H643a50.46,50.46,0,0,0,5,12.21l-9.26,9.26,18.67,18.67,9.26-9.26a50.46,50.46,0,0,0,12.21,5.05V628.8h26.4V615.69a50.46,50.46,0,0,0,12.21-5.05l9.26,9.26,18.67-18.67L736.21,592a50.46,50.46,0,0,0,5-12.21Zm-33.73-3.36a30.29,30.29,0,0,1-15.3,17.26,28.51,28.51,0,0,1-3.37,1.41,29.77,29.77,0,0,1-19.66,0,28.51,28.51,0,0,1-3.37-1.41,30.19,30.19,0,1,1,41.7-17.26Z" />
    </g>
</svg>